control3min_grf.mot
version=1
nRows=22
nColumns 19
inDegrees=yes
endheader
time	1_ground_force_vx	1_ground_force_vy	1_ground_force_vz	1_ground_force_px	1_ground_force_py	1_ground_force_pz	1_ground_torque_x	1_ground_torque_y	1_ground_torque_z	2_ground_force_vx	2_ground_force_vy	2_ground_force_vz	2_ground_force_px	2_ground_force_py	2_ground_force_pz	2_ground_torque_x	2_ground_torque_y	2_ground_torque_z
            0.005000	           31.466458	         1521.065566	         -114.481629	           -0.166500	            0.006191	           -0.394996	            0.119068	            5.755673	           -0.433196	           12.375195	         1441.478139	          135.925936	           -0.182362	            0.005966	           -0.737189	           -0.054305	           -6.325548	           -0.596475
            0.005500	           30.918054	         1521.062511	         -113.792436	           -0.166443	            0.006192	           -0.395151	            0.117263	            5.768935	           -0.431581	           11.856840	         1442.215686	          135.131028	           -0.182290	            0.005966	           -0.737134	           -0.053174	           -6.467841	           -0.606016
            0.006000	           30.644084	         1521.961654	         -113.283470	           -0.166556	            0.006191	           -0.395138	            0.119863	            5.953085	           -0.443103	           10.873182	         1442.031904	          134.051421	           -0.182256	            0.005966	           -0.737106	           -0.049356	           -6.545714	           -0.608490
            0.006500	           30.554951	         1522.317707	         -112.227006	           -0.166605	            0.006191	           -0.395098	            0.122963	            6.126322	           -0.451639	           10.127866	         1440.743164	          133.202450	           -0.182160	            0.005966	           -0.736913	           -0.046135	           -6.562948	           -0.606771
            0.007000	           30.326465	         1522.676879	         -111.903896	           -0.166629	            0.006191	           -0.395106	            0.121681	            6.109535	           -0.448999	            9.424850	         1440.742802	          132.592675	           -0.182081	            0.005966	           -0.736937	           -0.043237	           -6.609548	           -0.608282
            0.007500	           30.099127	         1520.510968	         -111.316480	           -0.166540	            0.006193	           -0.395375	            0.121780	            6.151940	           -0.450383	            8.209061	         1440.004687	          131.792795	           -0.181942	            0.005967	           -0.736923	           -0.037406	           -6.561694	           -0.600542
            0.008000	           29.550671	         1520.147517	         -110.674686	           -0.166494	            0.006192	           -0.395281	            0.118765	            6.109500	           -0.444804	            7.186071	         1437.793453	          131.175276	           -0.181795	            0.005967	           -0.736746	           -0.033266	           -6.655848	           -0.607238
            0.008500	           28.864944	         1519.603472	         -109.941604	           -0.166426	            0.006192	           -0.395299	            0.117296	            6.175071	           -0.446759	            5.732170	         1438.158209	          130.661006	           -0.181733	            0.005967	           -0.736739	           -0.026417	           -6.627882	           -0.602163
            0.009000	           27.722194	         1517.615247	         -108.755000	           -0.166354	            0.006193	           -0.395438	            0.115467	            6.321083	           -0.452980	            4.476301	         1435.577391	          130.136128	           -0.181589	            0.005967	           -0.736627	           -0.020726	           -6.646799	           -0.602537
            0.009500	           26.303258	         1516.169505	         -107.978110	           -0.166240	            0.006193	           -0.395416	            0.111684	            6.437691	           -0.458478	            2.978708	         1435.022675	          129.243168	           -0.181387	            0.005968	           -0.736716	           -0.013868	           -6.681265	           -0.601738
            0.010000	           24.929861	         1513.282629	         -107.436793	           -0.166075	            0.006193	           -0.395448	            0.106542	            6.467287	           -0.459151	            1.536083	         1432.257268	          128.670793	           -0.181173	            0.005968	           -0.736537	           -0.007130	           -6.647866	           -0.597229
            0.010500	           23.694433	         1511.115982	         -106.663450	           -0.165920	            0.006193	           -0.395482	            0.100260	            6.394085	           -0.451332	            0.138253	         1430.045015	          127.959577	           -0.180925	            0.005969	           -0.736540	           -0.000643	           -6.649047	           -0.594953
            0.011000	           22.045750	         1508.229446	         -106.213154	           -0.165745	            0.006193	           -0.395544	            0.091479	            6.258407	           -0.440732	           -1.440871	         1426.173633	          127.524111	           -0.180630	            0.005970	           -0.736456	            0.006671	           -6.603088	           -0.590428
            0.011500	           20.717398	         1505.343956	         -105.992946	           -0.165479	            0.006193	           -0.395499	            0.085897	            6.241357	           -0.439461	           -3.116895	         1423.221550	          127.373523	           -0.180444	            0.005970	           -0.736382	            0.014420	           -6.584492	           -0.589290
            0.012000	           19.116058	         1501.733885	         -104.995586	           -0.165211	            0.006194	           -0.395600	            0.080159	            6.297176	           -0.440275	           -5.404106	         1420.821167	          126.896677	           -0.180124	            0.005971	           -0.736395	            0.024750	           -6.507077	           -0.581161
            0.012500	           17.467669	         1498.486363	         -104.455133	           -0.164956	            0.006194	           -0.395604	            0.074477	            6.389133	           -0.445368	           -7.078944	         1417.502096	          126.416287	           -0.179843	            0.005972	           -0.736282	            0.032477	           -6.503296	           -0.579980
            0.013000	           14.994363	         1496.319673	         -103.724569	           -0.164892	            0.006194	           -0.395543	            0.063837	            6.370395	           -0.441594	           -8.754304	         1414.365933	          126.265057	           -0.179518	            0.005974	           -0.736433	            0.039801	           -6.430410	           -0.574064
            0.013500	           13.117591	         1491.629000	         -102.960455	           -0.164507	            0.006194	           -0.395615	            0.055761	            6.340683	           -0.437669	          -11.222246	         1410.122933	          125.828640	           -0.179204	            0.005974	           -0.736333	            0.050553	           -6.352259	           -0.566827
            0.014000	           11.056358	         1487.300652	         -102.607039	           -0.164282	            0.006194	           -0.395578	            0.046359	            6.236270	           -0.430233	          -13.085732	         1407.170920	          125.537356	           -0.178940	            0.005975	           -0.736271	            0.057917	           -6.228054	           -0.555621
            0.014500	            8.582016	         1483.333603	         -102.434476	           -0.164041	            0.006194	           -0.395602	            0.034688	            5.995532	           -0.414033	          -15.273782	         1403.296334	          125.383717	           -0.178608	            0.005977	           -0.736370	            0.067168	           -6.171141	           -0.551388
            0.015000	            6.658964	         1477.922963	         -101.902615	           -0.163629	            0.006194	           -0.395675	            0.026769	            5.941215	           -0.409646	          -17.368173	         1399.422421	          125.136167	           -0.178205	            0.005978	           -0.736296	            0.076286	           -6.146627	           -0.549631
            0.015500	            4.506042	         1474.855912	         -101.451857	           -0.163431	            0.006194	           -0.395641	            0.018248	            5.972565	           -0.410839	          -19.738949	         1394.257945	          125.024930	           -0.177751	            0.005980	           -0.736279	            0.086233	           -6.091044	           -0.546192
